<?xml version="1.0" encoding="UTF-8"?>
<svg width="36px" height="36px" viewBox="0 0 36 36" version="1.1" xmlns="http://www.w3.org/2000/svg" xmlns:xlink="http://www.w3.org/1999/xlink">
    <!-- Generator: Sketch 41.1 (35376) - http://www.bohemiancoding.com/sketch -->
    <title>心</title>
    <desc>Created with Sketch.</desc>
    <defs></defs>
    <g id="Welcome" stroke="none" stroke-width="1" fill="none" fill-rule="evenodd">
        <g id="ToDo" transform="translate(-42.000000, -161.000000)" fill="#444444">
            <g id="Todo_2" transform="translate(40.000000, 159.000000)">
                <g id="心" transform="translate(2.000000, 2.000000)">
                    <path d="M9.59765625,14.6875 C9.31640484,14.6875 9.17578125,14.8867168 9.17578125,15.2851562 C9.17578125,15.8710967 9.70311973,17.0898345 10.7578125,18.9414062 C14.0625165,25.8320657 19.1249659,29.2890624 25.9453125,29.3125 C28.1250109,29.3125 29.941399,29.0078155 31.3945312,28.3984375 C32.4960993,27.9062475 33.046875,27.2382855 33.046875,26.3945312 C33.046875,25.3164009 32.3671943,24.6601574 31.0078125,24.4257812 C28.6171755,20.1601349 25.3125211,16.7265755 21.09375,14.125 C22.1484428,13.0703072 22.9804657,12.5429688 23.5898438,12.5429688 C25.230477,12.5429688 26.8007737,13.3163985 28.3007812,14.8632812 C27.1757756,15.6367226 26.0625055,16.199217 24.9609375,16.5507812 C26.5781331,16.7851574 28.3124907,16.925781 30.1640625,16.9726562 C30.6796901,17.3007829 31.1367168,17.4648438 31.5351562,17.4648438 C32.8476628,17.4648438 33.5039062,16.8906307 33.5039062,15.7421875 C33.5039062,14.0078038 32.7421951,12.6015679 31.21875,11.5234375 C29.4843663,10.5390576 27.644541,10.046875 25.6992188,10.046875 C24.9023398,10.046875 22.5820505,10.7617116 18.7382812,12.1914062 C17.4257747,11.0195254 16.4648468,10.4335938 15.8554688,10.4335938 C15.0585898,10.4335938 14.6601562,11.0078068 14.6601562,12.15625 C14.6601562,13.2109428 15.3984301,14.4531179 16.875,15.8828125 C17.4609404,16.4921905 18.0703093,16.796875 18.703125,16.796875 C19.1250021,16.796875 19.4765611,16.4687533 19.7578125,15.8125 C22.0781366,18.2968874 23.8242129,21.1913897 24.9960938,24.4960938 C24.2929652,24.6835947 23.6835963,24.7773438 23.1679688,24.7773438 C19.4882629,24.7773438 16.2187643,22.9140811 13.359375,19.1875 C12.5156208,18.0156191 11.7539096,16.8554745 11.0742188,15.7070312 C10.6054664,15.0273404 10.1132838,14.6875 9.59765625,14.6875 Z M7.59375,18.1679688 C7.59375,16.925775 7.30078418,16.3046875 6.71484375,16.3046875 C6.29296664,16.3046875 5.6367232,17.1132732 4.74609375,18.7304688 C3.64452574,21.0742305 3.09375,22.8671813 3.09375,24.109375 C3.09375,25.1406302 3.33984129,26.0781208 3.83203125,26.921875 C4.4414093,27.8359421 5.0859341,28.2929688 5.765625,28.2929688 C6.35156543,28.2929688 6.78515484,28.0703147 7.06640625,27.625 C7.41797051,27.1093724 7.59375,26.0312582 7.59375,24.390625 L7.59375,18.1679688 Z"></path>
                </g>
            </g>
        </g>
    </g>
</svg>