<?xml version="1.0" encoding="UTF-8"?>
<svg width="36px" height="36px" viewBox="0 0 36 36" version="1.1" xmlns="http://www.w3.org/2000/svg" xmlns:xlink="http://www.w3.org/1999/xlink">
    <!-- Generator: Sketch 41.1 (35376) - http://www.bohemiancoding.com/sketch -->
    <title>気</title>
    <desc>Created with Sketch.</desc>
    <defs></defs>
    <g id="Welcome" stroke="none" stroke-width="1" fill="none" fill-rule="evenodd">
        <g id="ToDo" transform="translate(-42.000000, -97.000000)" fill="#444444">
            <g id="Todo_1" transform="translate(40.000000, 95.000000)">
                <g id="気" transform="translate(2.000000, 2.000000)">
                    <path d="M11.0390625,15.2148438 C13.9922023,14.6054657 17.2851381,13.4453211 20.9179688,11.734375 C22.558602,11.3124979 23.3789062,10.8906271 23.3789062,10.46875 C23.3789062,10.0937481 23.1796895,9.78906367 22.78125,9.5546875 C22.28906,9.27343609 21.8554706,9.1328125 21.4804688,9.1328125 C21.0820293,9.1328125 20.4375045,9.33202926 19.546875,9.73046875 C17.4609271,10.4335973 15.6093831,10.9726544 13.9921875,11.3476562 L12.4453125,11.4179688 C12.1406235,11.4179688 11.9882812,11.5585923 11.9882812,11.8398438 C11.9882812,12.2148456 12.4570266,12.5898419 13.3945312,12.9648438 C13.839846,13.1757823 14.2265609,13.28125 14.5546875,13.28125 C13.4765571,13.9375033 12.3046938,14.5820281 11.0390625,15.2148438 Z M10.7929688,7.234375 C9.64452551,7.82031543 9.0703125,8.4531216 9.0703125,9.1328125 C9.0703125,10.328131 9.42187148,10.9257812 10.125,10.9257812 C10.9921918,10.9257812 12.2109296,10.6093782 13.78125,9.9765625 C17.4843935,8.99218258 21.1992001,8.08984785 24.9257812,7.26953125 C25.8164107,7.08203031 26.2617188,6.6484409 26.2617188,5.96875 C26.2617188,5.07812055 25.839848,4.42187711 24.9960938,4 C24.2226524,3.64843574 23.4492226,3.47265625 22.6757812,3.47265625 C22.1132784,3.47265625 21.4218791,3.98827609 20.6015625,5.01953125 C19.1718679,5.58203406 17.6718829,6.09765391 16.1015625,6.56640625 C16.8984415,5.60546395 17.296875,4.86719008 17.296875,4.3515625 C17.296875,3.60155875 16.6054757,2.67578676 15.2226562,1.57421875 C14.9882801,1.3632802 14.4843789,1.2578125 13.7109375,1.2578125 C12.9843714,1.30468773 12.6210938,1.50390449 12.6210938,1.85546875 C12.6210938,2.30078348 12.8437478,2.81640332 13.2890625,3.40234375 C12.7265597,4.6914127 11.8945368,5.96874367 10.7929688,7.234375 Z M6.29296875,30.578125 C5.77734117,31.1171902 5.51953125,31.5273423 5.51953125,31.8085938 C5.51953125,32.3710966 5.83593434,32.6523438 6.46875,32.6523438 C7.10156566,32.6523438 7.98046312,32.4648456 9.10546875,32.0898438 C10.2070368,31.7617171 12.0702994,30.0039222 14.6953125,26.8164062 C15.2578153,27.4492219 15.7734352,28.0703095 16.2421875,28.6796875 C17.0156289,29.8281307 17.7539027,30.4023438 18.4570312,30.4023438 C19.5585993,30.4023438 20.109375,29.7929748 20.109375,28.5742188 C20.109375,27.6601517 19.8398464,26.7109424 19.3007812,25.7265625 C18.9023418,25.2343725 18.1640679,24.6367223 17.0859375,23.9335938 C17.7187532,23.2773405 18.6093693,22.4921921 19.7578125,21.578125 C20.3203153,21.2265607 20.6015625,20.8164086 20.6015625,20.3476562 C20.6015625,19.3164011 19.8398514,18.203131 18.3164062,17.0078125 C19.5820376,16.3515592 21.2578021,15.7304717 23.34375,15.1445312 C22.7812472,16.9726654 22.5,18.9413957 22.5,21.0507812 C22.5,24.1445467 23.0976503,26.8515509 24.2929688,29.171875 C26.5195424,32.8515809 29.1562348,34.6914062 32.203125,34.6914062 C34.4765739,34.6914062 35.6132812,34.0468814 35.6132812,32.7578125 C35.6132812,32.0781216 35.3320341,31.5625018 34.7695312,31.2109375 C34.4882798,27.0859169 33.3515725,23.3593916 31.359375,20.03125 C31.5703136,21.2968813 31.6757812,22.5039005 31.6757812,23.6523438 C31.6757812,25.7851669 31.3125036,27.6953041 30.5859375,29.3828125 C26.9999821,28.4687454 25.2070312,26.2890797 25.2070312,22.84375 C25.2070312,21.2265544 25.7460884,19.0937632 26.8242188,16.4453125 C27.667973,16.0703106 28.0898438,15.5195349 28.0898438,14.7929688 C28.0898438,14.1601531 27.9023456,13.6914078 27.5273438,13.3867188 C26.2617124,12.2851507 25.2890659,11.734375 24.609375,11.734375 C24.2812484,11.734375 23.6367236,12.1445271 22.6757812,12.9648438 C17.7538816,14.6523522 13.3125198,16.0703068 9.3515625,17.21875 L7.8046875,16.8320312 C7.52343609,16.8320312 7.3828125,17.0195294 7.3828125,17.3945312 C7.3828125,18.0273469 7.57031063,18.5312481 7.9453125,18.90625 C9.23438145,19.9140675 10.1601534,20.4179688 10.7226562,20.4179688 C11.4023471,20.4179688 13.4062334,19.5273527 16.734375,17.7460938 C16.6874998,17.9335947 16.6640625,18.1210928 16.6640625,18.3085938 C16.6640625,18.4960947 16.7929675,18.8242164 17.0507812,19.2929688 C16.2539023,20.5117248 15.4453166,21.6367136 14.625,22.6679688 C13.4062439,22.3164045 12.5859396,22.1171877 12.1640625,22.0703125 C11.460934,22.0468749 10.8984396,22.0351562 10.4765625,22.0351562 C10.1015606,22.0585939 9.9140625,22.2343734 9.9140625,22.5625 C9.9140625,22.7734386 10.0546861,22.949218 10.3359375,23.0898438 C11.2500046,23.5585961 12.0937461,24.1796836 12.8671875,24.953125 C11.3906176,26.7343839 9.99610031,28.0820267 8.68359375,28.9960938 C8.21484141,28.3398405 7.91015695,27.3554753 7.76953125,26.0429688 C7.32421652,27.3086001 6.83203395,28.8203037 6.29296875,30.578125 Z"></path>
                </g>
            </g>
        </g>
    </g>
</svg>