<?xml version="1.0" encoding="UTF-8"?>
<svg width="36px" height="36px" viewBox="0 0 36 36" version="1.1" xmlns="http://www.w3.org/2000/svg" xmlns:xlink="http://www.w3.org/1999/xlink">
    <!-- Generator: Sketch 41.1 (35376) - http://www.bohemiancoding.com/sketch -->
    <title>義</title>
    <desc>Created with Sketch.</desc>
    <defs></defs>
    <g id="Welcome" stroke="none" stroke-width="1" fill="none" fill-rule="evenodd">
        <g id="ToDo" transform="translate(-42.000000, -225.000000)" fill="#444444">
            <g id="Todo_3" transform="translate(40.000000, 223.000000)">
                <g id="義" transform="translate(2.000000, 2.000000)">
                    <path d="M13.921875,15.25 L14.484375,14.9335938 L14.7304688,15.0390625 L13.921875,15.25 Z M15.7851562,14.1953125 L16.5585938,13.8085937 L16.5585938,14.40625 L15.7851562,14.1953125 Z M14.8007812,22.8789062 L14.8359375,22.421875 C15.1640641,22.0703107 15.5390604,21.7070331 15.9609375,21.3320312 C16.4531275,20.9335918 16.6992188,20.5585955 16.6992188,20.2070312 C16.6992188,19.5742156 16.2656293,19.0937516 15.3984375,18.765625 C15.8203146,18.0156213 16.3476531,17.2656288 16.9804688,16.515625 L17.5078125,16.375 C17.5781254,17.0781285 18.0585893,17.4999993 18.9492188,17.640625 L19.7226562,19.9960938 C18.0585854,20.9101608 16.4179768,21.8710887 14.8007812,22.8789062 Z M13.7109375,13.1757812 C14.601567,12.9414051 15.4687458,12.7656256 16.3125,12.6484375 C15.7968724,13.0937522 15.2929712,13.4453112 14.8007812,13.703125 L13.7109375,13.1757812 Z M9.5625,29.59375 C10.5234423,28.7499958 11.4609329,27.9414101 12.375,27.1679687 C12.375,28.2460991 12.3515627,29.4062438 12.3046875,30.6484375 C11.29687,30.5781246 10.3828166,30.2265657 9.5625,29.59375 Z M11.5664062,22.8789062 C10.8398401,24.2148504 9.66797684,25.6445236 8.05078125,27.1679687 L7.03125,27.6601562 C6.37499672,28.3398471 6.046875,29.1601514 6.046875,30.1210938 C6.046875,30.8242223 6.42187125,31.1757812 7.171875,31.1757812 C7.64062734,31.1757812 8.24999625,30.8242223 9,30.1210938 C9.77344137,31.4570379 10.5703084,32.6874944 11.390625,33.8125 C11.5546883,34.6562542 11.9648405,35.078125 12.6210938,35.078125 C13.1601589,35.078125 13.6757788,34.7968778 14.1679688,34.234375 C14.6601587,33.5312465 14.90625,32.4062577 14.90625,30.859375 C14.8828124,29.1249913 14.8710938,27.2734473 14.8710938,25.3046875 C16.8632912,23.8749929 18.7148352,22.7500041 20.4257812,21.9296875 C21.0351593,23.6875088 21.71484,25.4101478 22.4648438,27.0976562 C21.8789033,27.8007848 21.3281276,28.3515605 20.8125,28.75 C20.2734348,27.8593705 20.0039062,26.8046936 20.0039062,25.5859375 C19.652342,26.2656284 19.2187526,27.5078035 18.703125,29.3125 C18.1640598,29.9921909 17.8945312,30.4492176 17.8945312,30.6835938 C17.8945312,31.2226589 18.4101511,31.4921875 19.4414062,31.4921875 C20.0742219,31.4921875 20.7070281,31.3750012 21.3398438,31.140625 C21.8085961,30.9062488 22.6054631,30.2968799 23.7304688,29.3125 C26.8007966,33.5547087 29.8124852,35.6757812 32.765625,35.6757812 C34.1484444,35.6757812 34.8398438,35.2070359 34.8398438,34.2695312 C34.8398438,33.5429651 34.6289084,32.9687521 34.2070312,32.546875 C33.7851541,29.851549 32.226576,26.8281418 29.53125,23.4765625 C30.2109409,25.5625104 30.5507812,27.1328072 30.5507812,28.1875 C30.5507812,28.984379 30.4570322,29.7929646 30.2695312,30.6132812 C28.6992109,29.957028 27.2461004,28.8203206 25.9101562,27.203125 C26.7070352,26.3124955 27.4335905,25.3632863 28.0898438,24.3554687 C28.441408,23.9570293 28.6171875,23.6054703 28.6171875,23.3007812 C28.6171875,22.9960922 28.441408,22.6562519 28.0898438,22.28125 C27.33984,21.4374958 26.6953152,21.015625 26.15625,21.015625 C25.2187453,21.0625002 24.75,21.3203102 24.75,21.7890625 C24.75,22.2109396 24.9609354,22.5976545 25.3828125,22.9492188 C25.0781235,23.5585968 24.7148459,24.1796843 24.2929688,24.8125 C23.6835907,23.5468687 23.1679709,22.2578191 22.7460938,20.9453125 C23.5429727,20.6171859 24.3749957,20.3476573 25.2421875,20.1367188 C25.8750032,19.996093 26.1914062,19.5742223 26.1914062,18.8710938 C26.9648476,19.0820323 27.7617146,19.2812491 28.5820312,19.46875 C29.2851598,19.9375023 29.8242169,20.171875 30.1992188,20.171875 C30.9023473,20.171875 31.2890621,19.6093806 31.359375,18.484375 C31.359375,17.4531198 30.8554738,16.4804733 29.8476562,15.5664062 C29.5898425,15.2617172 28.9218804,15.109375 27.84375,15.109375 C27.4453105,15.109375 26.9765652,15.1796868 26.4375,15.3203125 C26.1093734,15.414063 25.9453125,15.5781238 25.9453125,15.8125 C25.9453125,16.0234386 26.0507802,16.2226553 26.2617188,16.4101562 C26.9648473,16.9257838 27.5390603,17.4179664 27.984375,17.8867188 C27.4218722,18.2148454 26.8125033,18.4843739 26.15625,18.6953125 C25.7343729,17.7578078 24.8437568,17.2890625 23.484375,17.2890625 C22.9218722,17.2890625 22.3593778,17.3124998 21.796875,17.359375 C21.6796869,16.5859336 21.4335956,16.0117206 21.0585938,15.6367188 C22.6289141,15.4726554 24.2460854,15.3437505 25.9101562,15.25 C26.4960967,15.2031248 26.7890625,14.8164099 26.7890625,14.0898438 C26.7890625,13.5273409 26.4726594,13.0585956 25.8398438,12.6835938 C25.2070281,12.2851543 24.5273474,12.0859375 23.8007812,12.0859375 C23.6132803,12.0859375 22.921881,12.5078083 21.7265625,13.3515625 C20.8593707,13.5625011 19.9921918,13.7382805 19.125,13.8789063 L19.1601562,12.71875 C20.2382866,12.2968729 21.374994,11.910158 22.5703125,11.5585938 C23.273441,11.417968 23.625,11.1132836 23.625,10.6445312 C23.625,10.3164046 23.4492205,10.0117202 23.0976562,9.73046875 C22.6992168,9.47265496 22.2304714,9.34375 21.6914062,9.34375 C21.2226539,9.34375 20.4492241,9.42578043 19.3710938,9.58984375 L19.4414062,8.7109375 C20.5898495,8.40624848 21.8788991,8.12500129 23.3085938,7.8671875 C24.4804746,7.65624895 25.0664062,7.22265953 25.0664062,6.56640625 C25.0664062,5.83984012 24.5390678,5.26562711 23.484375,4.84375 C23.8359393,4.56249859 24.25781,4.16406508 24.75,3.6484375 C25.2187523,3.27343562 25.453125,2.94531391 25.453125,2.6640625 C25.453125,2.17187254 24.9140679,1.57422227 23.8359375,0.87109375 C23.3671852,0.589842344 22.8867212,0.44921875 22.3945312,0.44921875 C21.3398385,0.636719688 20.8125,0.906248242 20.8125,1.2578125 C20.8125,1.70312723 21.0703099,2.03124895 21.5859375,2.2421875 C20.390619,4.00000879 18.890634,5.51171242 17.0859375,6.77734375 L15.9257812,7.1640625 C16.4414088,6.81249824 16.6992188,6.21484797 16.6992188,5.37109375 C17.4960977,4.31640098 18.3984325,2.99219547 19.40625,1.3984375 C18.0468682,2.42969266 16.7109441,3.27343422 15.3984375,3.9296875 C14.8828099,3.53124801 14.5898441,3.00390953 14.5195312,2.34765625 C14.5195312,1.76171582 14.3437518,1.46875 13.9921875,1.46875 C13.5703104,1.46875 13.1953141,1.60937359 12.8671875,1.890625 C12.3046847,2.50000305 12.0234375,3.17968375 12.0234375,3.9296875 C12.0234375,4.70312887 12.4921828,5.61718223 13.4296875,6.671875 C13.9687527,7.11718973 14.6015589,7.33984375 15.328125,7.33984375 C14.0156184,7.73828324 12.5273521,8.05468633 10.8632812,8.2890625 L9.66796875,8.11328125 C9.4570302,8.11328125 9.3515625,8.23046758 9.3515625,8.46484375 C9.3515625,8.81640801 9.65624695,9.16796699 10.265625,9.51953125 C11.367193,9.96484598 12.2460905,10.1875 12.9023438,10.1875 C13.3945337,10.1875 14.6132715,9.92969008 16.5585938,9.4140625 L16.5585938,10.2226562 C15.6679643,10.48047 14.1679793,11.0195271 12.0585938,11.8398438 C11.4257781,12.0273447 11.109375,12.3203105 11.109375,12.71875 C11.109375,13.0937519 11.3085918,13.3632804 11.7070312,13.5273438 C12.3867221,13.8554704 13.031247,14.1484362 13.640625,14.40625 C12.2578056,15.203129 10.7343833,15.906247 9.0703125,16.515625 L7.06640625,16.4804688 C6.73827961,16.4804688 6.57421875,16.7031228 6.57421875,17.1484375 C6.57421875,17.5234394 6.74999824,17.8515611 7.1015625,18.1328125 C7.7812534,18.6250025 8.43749684,18.8710938 9.0703125,18.8710938 C9.53906484,18.8710938 10.0898406,18.7304702 10.7226562,18.4492188 C11.8242243,18.003904 12.9609316,17.5820332 14.1328125,17.1835938 C13.8749987,17.5820332 13.5000025,18.2148394 13.0078125,19.0820312 C10.2187361,20.2304745 8.40234797,21.1445279 7.55859375,21.8242188 C6.71483953,22.480472 6.29296875,23.18359 6.29296875,23.9335938 C6.29296875,24.285158 6.36328055,24.6015611 6.50390625,24.8828125 C6.73828242,25.3515648 6.94921781,25.5859375 7.13671875,25.5859375 C7.3476573,25.5859375 7.64062312,25.187504 8.015625,24.390625 C9.00000492,23.9218727 10.1835868,23.4179714 11.5664062,22.8789062 Z"></path>
                </g>
            </g>
        </g>
    </g>
</svg>